# xmcd
#
# Track frame offsets: 
#        150
#        23209
#        37245
#        52732
#        69774
#        84424
#        96175
#        109911
#        129242
#        144290
#
# Disc length: 2069 seconds
#
# Revision: 0
# Processed by: cddbd v1.5.2PL0 Copyright (c) Steve Scherf et al.
# Submitted via: ExactAudioCopy v0.95a4
#
DISCID=7908130a
DTITLE=Slidawg - REDNECK PARTY
DYEAR=1900
DGENRE=Comedy
TTITLE0=Cotton Eyed Joe
TTITLE1=Man of Constant Borrow
TTITLE2=Harley's Angels
TTITLE3=Redneck Parrothead
TTITLE4=Who's Ya Daddy?
TTITLE5=Alabama Redneck Starbucks
TTITLE6=Grandpa got run over by a Bird Dawg
TTITLE7=You Can't Fix Stupid
TTITLE8=Gettin' Piggy With It
TTITLE9=Hillbilly Hoedown
EXTD=
EXTT0=
EXTT1=
EXTT2=
EXTT3=
EXTT4=
EXTT5=
EXTT6=
EXTT7=
EXTT8=
EXTT9=
PLAYORDER=
